<?xml version="1.0" encoding="UTF-8" standalone="no"?>
<svg
   xmlns:dc="http://purl.org/dc/elements/1.1/"
   xmlns:cc="http://creativecommons.org/ns#"
   xmlns:rdf="http://www.w3.org/1999/02/22-rdf-syntax-ns#"
   xmlns:svg="http://www.w3.org/2000/svg"
   xmlns="http://www.w3.org/2000/svg"
   xmlns:sodipodi="http://sodipodi.sourceforge.net/DTD/sodipodi-0.dtd"
   xmlns:inkscape="http://www.inkscape.org/namespaces/inkscape"
   viewBox="0 0 165 255"
   height="255"
   width="165"
   id="svg933"
   version="1.1"
   sodipodi:docname="projectplay-logo.svg"
   inkscape:version="0.92.3 (2405546, 2018-03-11)">
  <sodipodi:namedview
     pagecolor="#ffffff"
     bordercolor="#666666"
     borderopacity="1"
     objecttolerance="10"
     gridtolerance="10"
     guidetolerance="10"
     inkscape:pageopacity="0"
     inkscape:pageshadow="2"
     inkscape:window-width="1299"
     inkscape:window-height="713"
     id="namedview879"
     showgrid="false"
     inkscape:zoom="2.0862745"
     inkscape:cx="48.353779"
     inkscape:cy="133.90668"
     inkscape:window-x="67"
     inkscape:window-y="27"
     inkscape:window-maximized="1"
     inkscape:current-layer="layer2" />
  <metadata
     id="metadata939">
    <rdf:RDF>
      <cc:Work
         rdf:about="">
        <dc:format>image/svg+xml</dc:format>
        <dc:type
           rdf:resource="http://purl.org/dc/dcmitype/StillImage" />
        <dc:title></dc:title>
      </cc:Work>
    </rdf:RDF>
  </metadata>
  <defs
     id="defs937" />
  <g
     inkscape:groupmode="layer"
     id="layer1"
     inkscape:label="Layer 1"
     style="display:inline" />
  <g
     inkscape:groupmode="layer"
     id="layer2"
     inkscape:label="all"
     style="display:inline"
     sodipodi:insensitive="true">
    <path
       style="fill:#8cc645;fill-opacity:1;stroke:none;stroke-width:0.24566929;stroke-linecap:butt;stroke-linejoin:miter;stroke-miterlimit:4;stroke-dasharray:none;stroke-opacity:1"
       d="M 32.876478,14.866138 44.061259,32.829575 55.24604,26.050919 Z"
       id="path1449"
       inkscape:connector-curvature="0" />
    <path
       style="fill:#93288d;fill-opacity:1;stroke:none;stroke-width:0.24566929;stroke-linecap:butt;stroke-linejoin:miter;stroke-miterlimit:4;stroke-dasharray:none;stroke-opacity:1"
       d="m 32.210405,15.218561 10.39858,18.429702 -11.312364,6.56353 z"
       id="path1449-3"
       inkscape:connector-curvature="0" />
    <path
       style="fill:#93288d;fill-opacity:1;stroke:none;stroke-width:0.24566929;stroke-linecap:butt;stroke-linejoin:miter;stroke-miterlimit:4;stroke-dasharray:none;stroke-opacity:1"
       d="M 45.056391,34.391447 56.080827,27.680921 57.87829,54.762688 Z"
       id="path1481"
       inkscape:connector-curvature="0" />
    <path
       style="fill:#8cc645;fill-opacity:1;stroke:none;stroke-width:0.24566929;stroke-linecap:butt;stroke-linejoin:miter;stroke-miterlimit:4;stroke-dasharray:none;stroke-opacity:1"
       d="M 43.378759,34.87077 32.833647,41.221804 55.841165,55.481673 Z"
       id="path1498"
       inkscape:connector-curvature="0" />
    <path
       style="fill:#93288d;fill-opacity:1;stroke:none;stroke-width:1px;stroke-linecap:square;stroke-linejoin:miter;stroke-opacity:1;paint-order:normal"
       d="m 65.18797,58.357613 c 0,0 10.026951,2.598686 12.462406,5.751879 0,0 7.252281,-6.876759 19.623327,-6.368359 12.371047,0.508399 22.200097,5.33819 28.978747,16.099306 0,0 -10.16798,-20.224651 -27.792483,-20.563584 C 80.835464,52.937923 76.598804,59.26633 76.598804,59.26633 Z"
       id="path1502"
       inkscape:connector-curvature="0"
       sodipodi:nodetypes="ccscscc" />
    <ellipse
       style="fill:#8cc645;fill-opacity:1;stroke:none;stroke-width:0.2679494;stroke-linecap:square;stroke-linejoin:miter;stroke-miterlimit:4;stroke-dasharray:none;stroke-opacity:1;paint-order:normal"
       id="path1504"
       cx="62.702168"
       cy="83.047798"
       rx="6.8210211"
       ry="8.4946871"
       transform="matrix(0.99147838,0.1302713,-0.12235442,0.99248647,0,0)" />
    <ellipse
       style="fill:#8cc645;fill-opacity:1;stroke:none;stroke-width:0.2679494;stroke-linecap:square;stroke-linejoin:miter;stroke-miterlimit:4;stroke-dasharray:none;stroke-opacity:1;paint-order:normal"
       id="path1504-5"
       cx="-103.09219"
       cy="104.80954"
       rx="6.8210211"
       ry="8.4946871"
       transform="matrix(-0.99147839,0.1302713,0.12235442,0.99248647,0,0)" />
    <path
       style="fill:#8cc645;fill-opacity:1;stroke:none;stroke-width:0.24566929;stroke-linecap:butt;stroke-linejoin:miter;stroke-miterlimit:4;stroke-dasharray:none;stroke-opacity:1"
       d="m 32.283346,93.668005 3.72826,-2.880928 c 0,0 7.777332,12.001583 14.58013,12.156203 3.728261,0.0847 8.21912,-1.271 12.794712,-5.338192 l 1.858109,4.959902 c 0,0 -2.996502,4.87341 -10.591649,6.43972 0,0 -3.050395,15.16724 2.372529,23.55583 l -7.625987,0.2542 c 0,0 -7.117588,-7.79545 -8.303853,-27.19935 0,0 -7.964919,-7.625993 -8.812251,-11.947385 z"
       id="path1521"
       inkscape:connector-curvature="0"
       sodipodi:nodetypes="ccsccccccc" />
    <path
       style="fill:#8cc645;fill-opacity:1;stroke:none;stroke-width:0.24566929;stroke-linecap:butt;stroke-linejoin:miter;stroke-miterlimit:4;stroke-dasharray:none;stroke-opacity:1"
       d="m 134.59916,93.864541 -3.72826,-2.880923 c 0,0 -7.77734,12.001582 -14.58013,12.156202 -3.72827,0.0847 -8.21912,-1.271 -12.79472,-5.338189 l -1.85811,4.959899 c 0,0 2.99651,4.87341 10.59165,6.43972 0,0 3.0504,15.16724 -2.37253,23.55583 l 7.62599,0.2542 c 0,0 7.11759,-7.79545 8.30385,-27.19935 0,0 7.96492,-7.625989 8.81226,-11.947389 z"
       id="path1521-3"
       inkscape:connector-curvature="0"
       sodipodi:nodetypes="ccsccccccc" />
    <ellipse
       style="fill:#93288d;fill-opacity:1;stroke:none;stroke-width:0.29740983;stroke-linecap:square;stroke-linejoin:miter;stroke-miterlimit:4;stroke-dasharray:none;stroke-opacity:1;paint-order:normal"
       id="path1540"
       cx="126.03642"
       cy="1.3874325"
       rx="8.5596952"
       ry="13.264144"
       transform="matrix(0.77739312,0.62901505,-0.69217326,0.72173137,0,0)" />
    <path
       style="fill:#93288d;fill-opacity:1;stroke:none;stroke-width:0.24566929;stroke-linecap:butt;stroke-linejoin:miter;stroke-miterlimit:4;stroke-dasharray:none;stroke-opacity:1"
       d="m 69.481216,71.637376 c 0,0 6.10079,18.980234 24.233693,25.081024 0,0 -11.862647,15.92984 -9.490118,36.60474 l -8.981718,-0.16947 c 0,0 -6.270256,-22.53903 1.86413,-36.265803 0,0 -8.303852,-2.880929 -12.032113,-22.03063 z"
       id="path1542"
       inkscape:connector-curvature="0"
       sodipodi:nodetypes="cccccc" />
    <rect
       style="fill:#93288d;fill-opacity:1;stroke:#93288d;stroke-width:1.00157475;stroke-linecap:round;stroke-linejoin:round;stroke-miterlimit:4;stroke-dasharray:none;stroke-opacity:1;paint-order:normal"
       id="rect1544"
       width="118.28754"
       height="26.606222"
       x="24.403158"
       y="137.39034" />
  </g>
  <g
     inkscape:groupmode="layer"
     id="layer3"
     inkscape:label="letras"
     sodipodi:insensitive="true"
     style="display:inline">
    <path
       style="fill:none;stroke:#f9fcf5;stroke-width:2.01002002;stroke-linecap:butt;stroke-linejoin:miter;stroke-miterlimit:4;stroke-dasharray:none;stroke-dashoffset:0;stroke-opacity:1"
       d="m 29.911898,160.2004 v 0 l -0.239385,-17.70944 c 0,0 7.779557,-1.37237 7.779557,4.13529 0,5.50766 -7.880187,4.74506 -7.880187,4.74506 v 0 0"
       id="path1553"
       inkscape:connector-curvature="0"
       sodipodi:nodetypes="ccc" />
    <path
       style="fill:none;stroke:#f9fcf5;stroke-width:2.01002002;stroke-linecap:butt;stroke-linejoin:miter;stroke-miterlimit:4;stroke-dasharray:none;stroke-dashoffset:0;stroke-opacity:1"
       d="m 44.904576,160.46443 v 0 l -0.239385,-17.70944 c 0,0 7.779557,-1.37237 7.779557,4.13529 0,5.50766 -7.880187,4.74506 -7.880187,4.74506 v 0 0"
       id="path1553-5"
       inkscape:connector-curvature="0"
       sodipodi:nodetypes="ccc" />
    <path
       style="fill:none;stroke:#f9fcf5;stroke-width:2.01002002;stroke-linecap:butt;stroke-linejoin:miter;stroke-miterlimit:4;stroke-dasharray:none;stroke-dashoffset:0;stroke-opacity:1"
       d="m 47.620053,151.45604 5.761857,8.21912 v 0"
       id="path1570"
       inkscape:connector-curvature="0" />
    <ellipse
       style="fill:none;fill-opacity:1;stroke:#f9fcf5;stroke-width:1.96328568;stroke-linecap:round;stroke-linejoin:round;stroke-miterlimit:4;stroke-dasharray:none;stroke-dashoffset:0;stroke-opacity:1;paint-order:normal"
       id="path1574"
       cx="68.42205"
       cy="150.94762"
       rx="7.7654996"
       ry="7.8925991" />
    <path
       style="fill:none;stroke:#f9fcf5;stroke-width:2.01002002;stroke-linecap:butt;stroke-linejoin:miter;stroke-miterlimit:4;stroke-dasharray:none;stroke-dashoffset:0;stroke-opacity:1"
       d="m 81.873445,158.55244 c 0,0 1.292182,0.44482 3.283411,0.36012 2.880929,-0.0847 2.499629,-3.6859 2.499629,-3.6859 l -0.120066,-13.22713 v 0"
       id="path1578"
       inkscape:connector-curvature="0"
       sodipodi:nodetypes="ccc" />
    <path
       style="fill:none;stroke:#f9fcf5;stroke-width:2.01002002;stroke-linecap:butt;stroke-linejoin:miter;stroke-miterlimit:4;stroke-dasharray:none;stroke-dashoffset:0;stroke-opacity:1"
       d="m 96.343985,142.29911 -0.05992,17.55521"
       id="path1580"
       inkscape:connector-curvature="0" />
    <path
       style="fill:none;stroke:#f9fcf5;stroke-width:2.01002002;stroke-linecap:butt;stroke-linejoin:miter;stroke-miterlimit:4;stroke-dasharray:none;stroke-dashoffset:0;stroke-opacity:1"
       d="m 96.506183,158.86058 8.088587,0.0599"
       id="path1582"
       inkscape:connector-curvature="0" />
    <path
       style="fill:none;stroke:#f9fcf5;stroke-width:2.01002002;stroke-linecap:butt;stroke-linejoin:miter;stroke-miterlimit:4;stroke-dasharray:none;stroke-dashoffset:0;stroke-opacity:1"
       d="m 96.608464,143.33371 8.088576,-0.11983"
       id="path1584"
       inkscape:connector-curvature="0" />
    <path
       style="fill:none;stroke:#f9fcf5;stroke-width:2.01002002;stroke-linecap:butt;stroke-linejoin:miter;stroke-miterlimit:4;stroke-dasharray:none;stroke-dashoffset:0;stroke-opacity:1"
       d="m 96.463816,150.14803 7.789004,0.17974"
       id="path1586"
       inkscape:connector-curvature="0" />
    <path
       style="fill:none;stroke:#f9fcf5;stroke-width:2.01002002;stroke-linecap:butt;stroke-linejoin:miter;stroke-miterlimit:4;stroke-dasharray:none;stroke-dashoffset:0;stroke-opacity:1"
       d="m 123.62572,143.99952 c 0,0 -1.52519,-0.93206 -4.15192,-1.10153 -2.71146,0.0847 -8.21912,1.35573 -8.04965,7.88018 0.16947,6.52446 4.23666,10.25272 12.20157,7.54126"
       id="path1588"
       inkscape:connector-curvature="0"
       sodipodi:nodetypes="ccsc" />
    <path
       style="fill:none;stroke:#f9fcf5;stroke-width:2.01002002;stroke-linecap:butt;stroke-linejoin:miter;stroke-miterlimit:4;stroke-dasharray:none;stroke-dashoffset:0;stroke-opacity:1"
       d="m 128.87918,142.98272 9.99852,0.16947 v 0"
       id="path1590"
       inkscape:connector-curvature="0" />
    <path
       style="fill:none;stroke:#f9fcf5;stroke-width:2.01002002;stroke-linecap:butt;stroke-linejoin:miter;stroke-miterlimit:4;stroke-dasharray:none;stroke-dashoffset:0;stroke-opacity:1"
       d="m 134.30211,142.89799 -0.16947,17.03137"
       id="path1592"
       inkscape:connector-curvature="0" />
    <path
       style="fill:#8cc645;fill-opacity:1;stroke:none;stroke-width:1px;stroke-linecap:butt;stroke-linejoin:miter;stroke-opacity:1"
       d="m 26.945155,168.40268 0.508399,45.41699 h 12.032113 l 0.338933,-21.1833 c 0,0 13.896243,2.37253 14.235176,-10.67638 0.338932,-13.04891 -11.184782,-13.72678 -11.184782,-13.72678 z"
       id="path1594"
       inkscape:connector-curvature="0" />
    <path
       style="fill:#8cc645;fill-opacity:1;stroke:none;stroke-width:1px;stroke-linecap:butt;stroke-linejoin:miter;stroke-opacity:1"
       d="m 57.11017,168.91108 10.845849,1.0168 -2.37253,33.38487 11.015315,0.84734 -0.169466,11.86264 -22.877962,-1.86413 z"
       id="path1596"
       inkscape:connector-curvature="0" />
    <path
       style="fill:#8cc645;fill-opacity:1;stroke:none;stroke-width:1px;stroke-linecap:butt;stroke-linejoin:miter;stroke-opacity:1"
       d="m 79.818665,215.85327 1.355731,-45.75593 12.371046,-1.86413 15.929838,42.95973 -11.693178,2.62673 -2.033597,-10.67638 -4.745058,0.84733 V 214.667 Z"
       id="path1598"
       inkscape:connector-curvature="0"
       sodipodi:nodetypes="ccccccccc" />
    <path
       style="fill:#8cc645;fill-opacity:1;stroke:none;stroke-width:1px;stroke-linecap:butt;stroke-linejoin:miter;stroke-opacity:1"
       d="m 110.57681,168.06375 12.11685,1.52519 1.10153,17.20084 6.01606,-16.01457 11.69318,1.69466 -14.15045,28.63982 -1.94886,15.08251 -12.70998,-1.69467 2.37253,-15.5909 z"
       id="path1600"
       inkscape:connector-curvature="0"
       sodipodi:nodetypes="cccccccccc" />
    <path
       style="fill:#ffffff;fill-opacity:1;stroke:#8cc645;stroke-width:1px;stroke-linecap:butt;stroke-linejoin:miter;stroke-opacity:1"
       d="m 90.831767,198.32002 0.359492,-8.02867 2.636279,7.42951 z"
       id="path1602"
       inkscape:connector-curvature="0"
       sodipodi:nodetypes="cccc" />
    <ellipse
       style="fill:#ffffff;fill-opacity:1;stroke:#8cc645;stroke-width:0.11;stroke-linecap:round;stroke-linejoin:round;stroke-miterlimit:4;stroke-dasharray:none;stroke-dashoffset:0;stroke-opacity:1;paint-order:normal"
       id="path1604"
       cx="40.802395"
       cy="182.65213"
       rx="1.1983083"
       ry="2.9058976" />
    <text
       xml:space="preserve"
       style="font-style:normal;font-weight:normal;font-size:14.53423977px;line-height:0.25;font-family:sans-serif;letter-spacing:0px;word-spacing:0px;fill:#93288d;fill-opacity:1;stroke:none;stroke-width:1.09006798"
       x="22.471762"
       y="254.32193"
       id="text1610"
       transform="scale(1.090068,0.91737393)"><tspan
         sodipodi:role="line"
         id="tspan1608"
         x="22.471762"
         y="254.32193"
         style="fill:#93288d;fill-opacity:1;stroke-width:1.09006798">NORTHERN</tspan></text>
    <text
       xml:space="preserve"
       style="font-style:normal;font-weight:normal;font-size:14.38726711px;line-height:0.25;font-family:sans-serif;letter-spacing:0px;word-spacing:0px;fill:#93288d;fill-opacity:1;stroke:none;stroke-width:1.34880626"
       x="109.22153"
       y="258.00293"
       id="text1614"
       transform="scale(1.1074543,0.90297178)"><tspan
         sodipodi:role="line"
         id="tspan1612"
         x="109.22153"
         y="258.00293"
         style="fill:#93288d;fill-opacity:1;stroke-width:1.34880626">VA</tspan></text>
  </g>
</svg>
